<?xml version="1.0" encoding="UTF-8"?><svg id="Layer_1" xmlns="http://www.w3.org/2000/svg" viewBox="0 0 2000 2000"><defs><style>.cls-1{fill:#0c0c0c;}.cls-2{fill:#f22525;}</style></defs><path class="cls-2" d="m1338.94,1573.56c-60.34,0-117.07-23.5-159.73-66.16l-179.21-179.21-179.21,179.21c-42.67,42.67-99.39,66.16-159.73,66.16s-117.07-23.5-159.73-66.16l-8.72-8.72c-42.67-42.67-66.16-99.39-66.16-159.73s23.5-117.07,66.16-159.73l179.21-179.21-179.21-179.21c-42.67-42.67-66.16-99.39-66.16-159.73s23.5-117.07,66.16-159.73l8.72-8.72c42.67-42.67,99.39-66.16,159.73-66.16s117.07,23.5,159.73,66.16l179.21,179.21,179.21-179.21c42.67-42.67,99.39-66.16,159.73-66.16s117.07,23.5,159.73,66.16l8.72,8.72c42.67,42.67,66.16,99.39,66.16,159.73s-23.5,117.07-66.16,159.73l-179.21,179.21,179.21,179.21c42.67,42.67,66.16,99.39,66.16,159.73s-23.5,117.07-66.16,159.73l-8.72,8.72c-42.67,42.67-99.39,66.16-159.73,66.16Z"/><path class="cls-1" d="m1338.94,476.44c45.02,0,90.03,17.17,124.38,51.52l8.72,8.72c68.69,68.69,68.69,180.06,0,248.75l-214.56,214.56,214.56,214.56c68.69,68.69,68.69,180.06,0,248.76l-8.72,8.72c-34.35,34.35-79.36,51.52-124.38,51.52s-90.03-17.17-124.38-51.52l-214.56-214.56-214.56,214.56c-34.35,34.35-79.36,51.52-124.38,51.52s-90.03-17.17-124.38-51.52l-8.72-8.72c-68.69-68.69-68.69-180.06,0-248.76l214.56-214.56-214.56-214.56c-68.69-68.69-68.69-180.06,0-248.75l8.72-8.72c34.35-34.35,79.36-51.52,124.38-51.52s90.03,17.17,124.38,51.52l214.56,214.56,214.56-214.56c34.35-34.35,79.36-51.52,124.38-51.52m0-100c-35.79,0-70.7,6.8-103.77,20.21-34.29,13.9-65.01,34.29-91.32,60.6l-143.85,143.85-143.85-143.85c-26.31-26.31-57.03-46.69-91.32-60.6-33.07-13.41-67.98-20.21-103.77-20.21s-70.7,6.8-103.77,20.21c-34.29,13.91-65.01,34.29-91.32,60.6l-8.72,8.72c-26.31,26.31-46.69,57.03-60.6,91.32-13.41,33.07-20.21,67.98-20.21,103.77s6.8,70.7,20.21,103.77c13.91,34.29,34.29,65.01,60.6,91.32l143.85,143.85-143.85,143.85c-26.31,26.31-46.69,57.03-60.6,91.32-13.41,33.07-20.21,67.98-20.21,103.77s6.8,70.7,20.21,103.77c13.91,34.29,34.29,65.01,60.6,91.32l8.72,8.72c26.3,26.3,57.03,46.69,91.32,60.6,33.07,13.41,67.98,20.21,103.77,20.21s70.7-6.8,103.77-20.21c34.29-13.91,65.01-34.29,91.32-60.6l143.85-143.85,143.85,143.85c26.31,26.31,57.03,46.69,91.32,60.6,33.07,13.41,67.98,20.21,103.77,20.21s70.7-6.8,103.77-20.21c34.29-13.9,65.01-34.29,91.32-60.6l8.72-8.72c26.31-26.31,46.7-57.03,60.6-91.32,13.41-33.07,20.21-67.98,20.21-103.77s-6.8-70.7-20.21-103.77c-13.91-34.29-34.29-65.01-60.6-91.32l-143.85-143.85,143.85-143.85c26.31-26.31,46.69-57.03,60.6-91.32,13.41-33.07,20.21-67.98,20.21-103.77s-6.8-70.7-20.21-103.77c-13.91-34.29-34.29-65.01-60.6-91.32l-8.72-8.72c-26.31-26.31-57.03-46.69-91.32-60.6-33.07-13.41-67.98-20.21-103.77-20.21h0Z"/></svg>