<?xml version="1.0" encoding="UTF-8"?><svg id="Layer_1" xmlns="http://www.w3.org/2000/svg" viewBox="0 0 2000 2000"><defs><style>.cls-1{fill:#0c0c0c;}.cls-2{fill:#ffb600;}</style></defs><path class="cls-2" d="m536.9,1225.9c-60.34,0-117.07-23.5-159.73-66.16-42.67-42.67-66.16-99.39-66.16-159.73s23.5-117.07,66.16-159.73c42.67-42.67,99.39-66.16,159.73-66.16h926.21c60.34,0,117.07,23.5,159.73,66.16,42.67,42.67,66.16,99.39,66.16,159.73s-23.5,117.07-66.16,159.73c-42.67,42.67-99.39,66.16-159.73,66.16h-926.21Z"/><path class="cls-1" d="m1463.1,824.1c97.14,0,175.9,78.75,175.9,175.9h0c0,97.15-78.75,175.9-175.9,175.9h-926.21c-97.14,0-175.9-78.75-175.9-175.9h0c0-97.15,78.75-175.9,175.9-175.9h926.21m0-100h-926.21c-37.2,0-73.34,7.31-107.42,21.72-32.87,13.9-62.36,33.78-87.67,59.09-25.31,25.31-45.18,54.8-59.09,87.67-14.41,34.08-21.72,70.22-21.72,107.42s7.31,73.34,21.72,107.42c13.9,32.87,33.78,62.36,59.09,87.67,25.31,25.31,54.8,45.19,87.67,59.09,34.08,14.41,70.22,21.72,107.42,21.72h926.21c37.2,0,73.34-7.31,107.42-21.72,32.87-13.9,62.36-33.78,87.67-59.09,25.31-25.31,45.19-54.8,59.09-87.67,14.41-34.08,21.72-70.22,21.72-107.42s-7.31-73.34-21.72-107.42c-13.9-32.87-33.78-62.36-59.09-87.67-25.31-25.31-54.8-45.19-87.67-59.09-34.08-14.41-70.22-21.72-107.42-21.72h0Z"/></svg>