<?xml version="1.0" encoding="UTF-8"?><svg id="Layer_1" xmlns="http://www.w3.org/2000/svg" xmlns:xlink="http://www.w3.org/1999/xlink" viewBox="0 0 2000 2000"><defs><style>.cls-1{fill:#0c0c0c;}.cls-2{fill:#2e69ff;}.cls-3,.cls-4{fill:none;}.cls-5{fill:#55f;}.cls-4{clip-path:url(#clippath);}</style><clipPath id="clippath"><rect class="cls-3" x="2020" width="2000" height="2000" rx="318.33" ry="318.33"/></clipPath></defs><path class="cls-5" d="m740.34,1671.64c-110.65,0-200.67-90.02-200.67-200.67s90.02-200.67,200.67-200.67h58.99v-122.43c-86.54-22.27-150.67-100.97-150.67-194.37,0-110.65,90.02-200.67,200.67-200.67h150.67c110.65,0,200.67,90.02,200.67,200.67v316.8h58.99c110.65,0,200.67,90.02,200.67,200.67s-90.02,200.67-200.67,200.67h-519.32Z"/><path class="cls-1" d="m1000,802.83c83.21,0,150.67,67.46,150.67,150.67h0v366.8h108.99c83.21,0,150.67,67.46,150.67,150.67h0c0,83.21-67.46,150.67-150.67,150.67h-519.32c-83.21,0-150.67-67.46-150.67-150.67h0c0-83.21,67.46-150.67,150.67-150.67h108.99v-216.13c-83.21,0-150.67-67.46-150.67-150.67h0c0-83.21,67.46-150.67,150.67-150.67h150.67m0-100h-150.67c-33.8,0-66.64,6.64-97.6,19.74-29.86,12.63-56.66,30.69-79.65,53.68-22.99,22.99-41.05,49.79-53.68,79.65-13.1,30.97-19.74,63.81-19.74,97.6s6.64,66.63,19.74,97.6c12.63,29.86,30.69,56.66,53.68,79.65,22.37,22.37,48.35,40.08,77.25,52.65v36.9h-8.99c-33.8,0-66.64,6.64-97.6,19.74-29.86,12.63-56.66,30.69-79.65,53.68-22.99,22.99-41.05,49.79-53.68,79.65-13.1,30.97-19.74,63.81-19.74,97.6s6.64,66.64,19.74,97.6c12.63,29.86,30.69,56.66,53.68,79.65,22.99,22.99,49.79,41.05,79.65,53.68,30.97,13.1,63.81,19.74,97.6,19.74h519.32c33.8,0,66.64-6.64,97.6-19.74,29.86-12.63,56.66-30.69,79.65-53.68,22.99-22.99,41.05-49.79,53.68-79.65,13.1-30.97,19.74-63.81,19.74-97.6s-6.64-66.64-19.74-97.6c-12.63-29.86-30.69-56.66-53.68-79.65-22.99-22.99-49.79-41.05-79.65-53.68-30.97-13.1-63.81-19.74-97.6-19.74h-8.99v-266.8c0-33.8-6.64-66.63-19.74-97.6-12.63-29.86-30.69-56.66-53.68-79.65-22.99-22.99-49.79-41.05-79.65-53.68-30.97-13.1-63.81-19.74-97.6-19.74h0Z"/><circle class="cls-5" cx="999.84" cy="528.87" r="200.52"/><path class="cls-1" d="m999.84,378.36c83.13,0,150.52,67.39,150.52,150.52s-67.39,150.52-150.52,150.52-150.52-67.39-150.52-150.52,67.39-150.52,150.52-150.52m0-100c-33.78,0-66.59,6.64-97.54,19.73-29.84,12.62-56.62,30.67-79.6,53.65s-41.02,49.76-53.65,79.6c-13.09,30.95-19.73,63.77-19.73,97.54s6.64,66.59,19.73,97.54c12.62,29.84,30.67,56.62,53.65,79.6,22.97,22.97,49.76,41.02,79.6,53.65,30.95,13.09,63.77,19.73,97.54,19.73s66.59-6.64,97.54-19.73c29.84-12.62,56.62-30.67,79.6-53.65,22.97-22.97,41.02-49.76,53.65-79.6,13.09-30.95,19.73-63.77,19.73-97.54s-6.64-66.59-19.73-97.54c-12.62-29.84-30.67-56.62-53.65-79.6-22.97-22.97-49.76-41.02-79.6-53.65-30.95-13.09-63.77-19.73-97.54-19.73h0Z"/><g class="cls-4"><path class="cls-2" d="m1653.13,1779.64l40.21-268.04c21.91-146.06,203.77-200.92,302.79-91.33h0c81.93,90.67,229.21,71.53,285.25-37.06l172.49-334.23c65.62-127.15,247.83-126.03,311.88,1.92l146.95,293.54c54.39,108.64,200.24,130.12,283.64,41.77l115.13-121.96c71.29-75.53,192.3-72.67,259.95,6.14l210.85,245.64c58.32,67.94,158.52,80.88,232.18,29.98l53.68-37.09c116.31-80.36,274.97,3.29,274.37,144.66l-.64,152.75c-.4,96.33-78.61,174.2-174.93,174.2H1826.13c-106.95,0-188.86-95.12-173-200.88Z"/></g></svg>