<?xml version="1.0" encoding="UTF-8"?><svg id="Layer_1" xmlns="http://www.w3.org/2000/svg" viewBox="0 0 2000 2000"><defs><style>.cls-1{fill:#303030;}.cls-2{fill:#308dd8;}.cls-3{fill:#249;}</style></defs><path class="cls-3" d="m0,774.37v-432.18c0-91.44,74.13-165.57,165.57-165.57h539.7c91.44,0,165.57,74.13,165.57,165.57v266.61c0,91.44-74.13,165.57-165.57,165.57H0Z"/><path class="cls-2" d="m0,1427.8V435.24h1619.75c210,0,380.25,170.24,380.25,380.25v612.31c0,210-170.24,380.25-380.25,380.25H380.25C170.24,1808.04,0,1637.8,0,1427.8Z"/><rect class="cls-1" x="1263.94" y="382.49" width="282.42" height="123.19" rx="56.47" ry="56.47"/><rect class="cls-1" x="1414.12" y="505.68" width="282.42" height="123.19" rx="56.47" ry="56.47"/><rect class="cls-1" x="1263.94" y="628.87" width="282.42" height="123.19" rx="56.47" ry="56.47"/><rect class="cls-1" x="1414.12" y="752.07" width="282.42" height="123.19" rx="56.47" ry="56.47"/><rect class="cls-1" x="1263.94" y="875.26" width="282.42" height="123.19" rx="56.47" ry="56.47"/><rect class="cls-1" x="1414.12" y="998.45" width="282.42" height="123.19" rx="56.47" ry="56.47"/><rect class="cls-1" x="1263.94" y="1121.64" width="282.42" height="123.19" rx="56.47" ry="56.47"/><rect class="cls-1" x="1414.12" y="1244.83" width="282.42" height="123.19" rx="56.47" ry="56.47"/><rect class="cls-1" x="1263.94" y="1368.03" width="282.42" height="123.19" rx="56.47" ry="56.47"/><rect class="cls-1" x="1414.12" y="1491.22" width="282.42" height="123.19" rx="56.47" ry="56.47"/><rect class="cls-1" x="1263.94" y="1614.41" width="282.42" height="123.19" rx="56.47" ry="56.47"/><rect class="cls-1" x="1414.12" y="1737.6" width="282.42" height="123.19" rx="56.47" ry="56.47"/><rect class="cls-1" x="741.09" y="1055.52" width="1478.31" height="132.24" rx="60.62" ry="60.62" transform="translate(2601.88 -358.6) rotate(90)"/></svg>