<?xml version="1.0" encoding="UTF-8"?><svg id="Layer_1" xmlns="http://www.w3.org/2000/svg" viewBox="0 0 2000 2000"><defs><style>.cls-1{fill:#08a850;}.cls-2{fill:#0c0c0c;}</style></defs><path class="cls-1" d="m1000,1689c-60.34,0-117.07-23.5-159.73-66.16s-66.16-99.39-66.16-159.73v-237.21h-237.21c-60.34,0-117.07-23.5-159.73-66.16-42.67-42.67-66.16-99.39-66.16-159.73s23.5-117.07,66.16-159.73c42.67-42.67,99.39-66.16,159.73-66.16h237.21v-237.21c0-60.34,23.5-117.07,66.16-159.73s99.39-66.16,159.73-66.16,117.07,23.5,159.73,66.16,66.16,99.39,66.16,159.73v237.21h237.21c60.34,0,117.07,23.5,159.73,66.16,42.67,42.67,66.16,99.39,66.16,159.73s-23.5,117.07-66.16,159.73c-42.67,42.67-99.39,66.16-159.73,66.16h-237.21v237.21c0,60.34-23.5,117.07-66.16,159.73s-99.39,66.16-159.73,66.16Z"/><path class="cls-2" d="m1000,361c97.15,0,175.9,78.75,175.9,175.9v287.21h287.21c97.14,0,175.9,78.75,175.9,175.9h0c0,97.15-78.75,175.9-175.9,175.9h-287.21v287.21c0,97.15-78.75,175.9-175.9,175.9s-175.9-78.75-175.9-175.9v-287.21h-287.21c-97.14,0-175.9-78.75-175.9-175.9h0c0-97.15,78.75-175.9,175.9-175.9h287.21v-287.21c0-97.15,78.75-175.9,175.9-175.9m0-100c-37.2,0-73.34,7.31-107.42,21.72-32.87,13.9-62.36,33.78-87.67,59.09-25.31,25.31-45.18,54.8-59.09,87.67-14.41,34.08-21.72,70.22-21.72,107.42v187.21h-187.21c-37.2,0-73.34,7.31-107.42,21.72-32.87,13.9-62.36,33.78-87.67,59.09-25.31,25.31-45.19,54.8-59.09,87.67-14.41,34.08-21.72,70.22-21.72,107.42s7.31,73.34,21.72,107.42c13.9,32.87,33.78,62.36,59.09,87.67,25.31,25.31,54.8,45.19,87.67,59.09,34.08,14.41,70.22,21.72,107.42,21.72h187.21v187.21c0,37.2,7.31,73.34,21.72,107.42,13.9,32.87,33.78,62.36,59.09,87.67,25.31,25.31,54.8,45.19,87.67,59.09,34.08,14.41,70.22,21.72,107.42,21.72s73.34-7.31,107.42-21.72c32.87-13.9,62.36-33.78,87.67-59.09,25.31-25.31,45.18-54.8,59.09-87.67,14.41-34.08,21.72-70.22,21.72-107.42v-187.21h187.21c37.2,0,73.34-7.31,107.42-21.72,32.87-13.9,62.36-33.78,87.67-59.09,25.31-25.31,45.18-54.8,59.09-87.67,14.41-34.08,21.72-70.22,21.72-107.42s-7.31-73.34-21.72-107.42c-13.9-32.87-33.78-62.36-59.09-87.67-25.31-25.31-54.8-45.19-87.67-59.09-34.08-14.41-70.22-21.72-107.42-21.72h-187.21v-187.21c0-37.2-7.31-73.34-21.72-107.42-13.9-32.87-33.78-62.36-59.09-87.67-25.31-25.31-54.8-45.18-87.67-59.09-34.08-14.41-70.22-21.72-107.42-21.72h0Z"/></svg>