<?xml version="1.0" encoding="UTF-8"?><svg id="Layer_1" xmlns="http://www.w3.org/2000/svg" xmlns:xlink="http://www.w3.org/1999/xlink" viewBox="0 0 2000 2000"><defs><clipPath id="clippath"><rect x="0" y="0" width="2000" height="2000" rx="318.33" ry="318.33" transform="translate(2000 2000) rotate(-180)" fill="none"/></clipPath></defs><path d="m318.33,1940c-69,0-133.88-26.87-182.67-75.66-48.79-48.79-75.66-113.67-75.66-182.67V318.33c0-69,26.87-133.88,75.66-182.67,48.79-48.79,113.67-75.66,182.67-75.66h1363.33c69,0,133.88,26.87,182.67,75.66,48.79,48.79,75.66,113.67,75.66,182.67v1363.33c0,69-26.87,133.88-75.66,182.67-48.79,48.79-113.67,75.66-182.67,75.66H318.33Z" fill="#5cf4ff"/><path d="m1681.67,120c52.98,0,102.78,20.63,140.24,58.09,37.46,37.46,58.09,87.27,58.09,140.24v1363.33c0,52.98-20.63,102.78-58.09,140.24-37.46,37.46-87.27,58.09-140.24,58.09H318.33c-52.98,0-102.78-20.63-140.24-58.09s-58.09-87.27-58.09-140.24V318.33c0-52.98,20.63-102.78,58.09-140.24s87.27-58.09,140.24-58.09h1363.33m0-120H318.33C142.52,0,0,142.52,0,318.33v1363.33c0,175.81,142.52,318.33,318.33,318.33h1363.33c175.81,0,318.33-142.52,318.33-318.33V318.33C2000,142.52,1857.48,0,1681.67,0h0Z" fill="#0192b9"/><g clip-path="url(#clippath)"><path d="m2631.18,1779.64l-40.21-268.04c-21.91-146.06-203.77-200.92-302.79-91.33h0c-81.93,90.67-229.21,71.53-285.25-37.06l-172.49-334.23c-65.62-127.15-247.83-126.03-311.88,1.92l-146.95,293.54c-54.39,108.64-200.24,130.12-283.64,41.77l-115.13-121.96c-71.29-75.53-192.3-72.67-259.95,6.14l-210.85,245.64c-58.32,67.94-158.52,80.88-232.18,29.98l-53.68-37.09c-116.31-80.36-274.97,3.29-274.37,144.66l.64,152.75c.4,96.33,78.61,174.2,174.93,174.2h2340.8c106.95,0,188.86-95.12,173-200.88Z" fill="#0192b9"/><path d="m1667.8,1109.72h-241.35c-22.31,0-36.39-24-25.49-43.48h0c5.16-9.23,14.92-14.95,25.49-14.95h241.35c22.31,0,36.39,24,25.49,43.48h0c-5.16,9.23-14.92,14.95-25.49,14.95Z" fill="#0192b9"/><path d="m1635.11,1168.14h-241.35c-22.31,0-36.39-24-25.49-43.48h0c5.16-9.23,14.92-14.95,25.49-14.95h241.35c22.31,0,36.39,24,25.49,43.48h0c-5.16,9.23-14.92,14.95-25.49,14.95Z" fill="#5cf4ff"/><path d="m1525.44,1226.57h-241.35c-22.31,0-36.39-24-25.49-43.48h0c5.16-9.23,14.92-14.95,25.49-14.95h241.35c22.31,0,36.39,24,25.49,43.48h0c-5.16,9.23-14.92,14.95-25.49,14.95Z" fill="#0192b9"/><path d="m1492.75,1284.99h-241.35c-22.31,0-36.39-24-25.49-43.48h0c5.16-9.23,14.92-14.95,25.49-14.95h241.35c22.31,0,36.39,24,25.49,43.48h0c-5.16,9.23-14.92,14.95-25.49,14.95Z" fill="#5cf4ff"/><path d="m797.77,1353.85h-241.35c-22.31,0-36.39-24-25.49-43.48h0c5.16-9.23,14.92-14.95,25.49-14.95h241.35c22.31,0,36.39,24,25.49,43.48h0c-5.16,9.23-14.92,14.95-25.49,14.95Z" fill="#0192b9"/><path d="m765.08,1412.28h-241.35c-22.31,0-36.39-24-25.49-43.48h0c5.16-9.23,14.92-14.95,25.49-14.95h241.35c22.31,0,36.39,24,25.49,43.48h0c-5.16,9.23-14.92,14.95-25.49,14.95Z" fill="#5cf4ff"/><circle cx="573.05" cy="527.7" r="167.69" fill="#0192b9"/></g></svg>