<?xml version="1.0" encoding="UTF-8"?><svg id="Layer_1" xmlns="http://www.w3.org/2000/svg" xmlns:xlink="http://www.w3.org/1999/xlink" viewBox="0 0 2000 2000"><defs><clipPath id="clippath"><rect x="2020" width="2000" height="2000" rx="318.33" ry="318.33" fill="none"/></clipPath></defs><rect x="824.1" y="769.82" width="351.79" height="955.9" rx="175.9" ry="175.9" fill="#55f"/><rect x="520.97" y="1373.92" width="958.06" height="351.79" rx="175.9" ry="175.9" fill="#55f"/><rect x="648.21" y="769.82" width="527.69" height="351.79" rx="175.9" ry="175.9" fill="#55f"/><circle cx="999.82" cy="450" r="175.72" fill="#55f"/><g clip-path="url(#clippath)"><path d="m1653.13,1779.64l40.21-268.04c21.91-146.06,203.77-200.92,302.79-91.33h0c81.93,90.67,229.21,71.53,285.25-37.06l172.49-334.23c65.62-127.15,247.83-126.03,311.88,1.92l146.95,293.54c54.39,108.64,200.24,130.12,283.64,41.77l115.13-121.96c71.29-75.53,192.3-72.67,259.95,6.14l210.85,245.64c58.32,67.94,158.52,80.88,232.18,29.98l53.68-37.09c116.31-80.36,274.97,3.29,274.37,144.66l-.64,152.75c-.4,96.33-78.61,174.2-174.93,174.2H1826.13c-106.95,0-188.86-95.12-173-200.88Z" fill="#2e69ff"/></g></svg>