<?xml version="1.0" encoding="UTF-8"?><svg id="Layer_1" xmlns="http://www.w3.org/2000/svg" viewBox="0 0 2000 2000"><path d="m1552.75,1525.04l238.73-238.73c50.51-50.51,50.51-132.41,0-182.92l-298.13-298.13c-50.51-50.51-132.41-50.51-182.92,0l-147.28,147.28c-50.51,50.51-50.51,132.41,0,182.92l389.59,389.59Z" fill="#ff8b00"/><path d="m1191.8,1885.99l548.29-548.29L845.34,442.96c-116.01-116.01-304.09-116.01-420.1,0L87,781.2c-116.01,116.01-116.01,304.09,0,420.1l684.7,684.7c116.01,116.01,304.09,116.01,420.1,0Z" fill="#ffb000"/><path d="m1594.85,249.01v621.84c0,382.31-309.93,692.24-692.24,692.24h-275.7" fill="none" stroke="#00a21f" stroke-linecap="round" stroke-linejoin="round" stroke-width="253.43"/><path d="m1506.6,77.96l-303.08,524.96c-39.23,67.94,9.81,152.87,88.26,152.87h606.17c78.45,0,127.48-84.93,88.26-152.87L1683.11,77.96c-39.23-67.94-137.29-67.94-176.51,0Z" fill="#00a21f"/></svg>