<?xml version="1.0" encoding="UTF-8"?><svg id="Layer_1" xmlns="http://www.w3.org/2000/svg" viewBox="0 0 2000 2000"><defs><style>.cls-1{fill:#ffb000;}.cls-2{fill:#00a21f;}.cls-3{fill:#ff8b00;}.cls-4{fill:none;stroke:#00a21f;stroke-linecap:round;stroke-linejoin:round;stroke-width:253.43px;}</style></defs><path class="cls-3" d="m562.46,1874.26H163.28c-84.46,0-152.92-68.47-152.92-152.92v-498.48c0-84.46,68.47-152.92,152.92-152.92h246.25c84.46,0,152.92,68.47,152.92,152.92v651.41Z"/><path class="cls-1" d="m1165.98,1874.26H249.23s0-1496.05,0-1496.05c0-193.97,157.24-351.21,351.21-351.21h565.55c193.97,0,351.21,157.24,351.21,351.21v1144.84c0,193.97-157.24,351.21-351.21,351.21Z"/><path class="cls-4" d="m1594.85,249.01v621.84c0,382.31-309.93,692.24-692.24,692.24h-275.7"/><path class="cls-2" d="m1506.6,77.96l-303.08,524.96c-39.23,67.94,9.81,152.87,88.26,152.87h606.17c78.45,0,127.48-84.93,88.26-152.87L1683.11,77.96c-39.23-67.94-137.29-67.94-176.51,0Z"/></svg>