<?xml version="1.0" encoding="UTF-8"?><svg id="Layer_1" xmlns="http://www.w3.org/2000/svg" xmlns:xlink="http://www.w3.org/1999/xlink" viewBox="0 0 2000 2000"><defs><clipPath id="clippath"><rect width="2000" height="2000" rx="318.33" ry="318.33" fill="none"/></clipPath><clipPath id="clippath-1"><rect x="2020" width="2000" height="2000" rx="318.33" ry="318.33" fill="none"/></clipPath></defs><path d="m1681.67,120c52.98,0,102.78,20.63,140.24,58.09,37.46,37.46,58.09,87.27,58.09,140.24v1363.33c0,52.98-20.63,102.78-58.09,140.24-37.46,37.46-87.27,58.09-140.24,58.09H318.33c-52.98,0-102.78-20.63-140.24-58.09-37.46-37.46-58.09-87.27-58.09-140.24V318.33c0-52.98,20.63-102.78,58.09-140.24,37.46-37.46,87.27-58.09,140.24-58.09h1363.33m0-120H318.33C142.52,0,0,142.52,0,318.33v1363.33c0,175.81,142.52,318.33,318.33,318.33h1363.33c175.81,0,318.33-142.52,318.33-318.33V318.33C2000,142.52,1857.48,0,1681.67,0h0Z" fill="#2e69ff"/><g clip-path="url(#clippath)"><path d="m-366.87,1779.64l40.21-268.04c21.91-146.06,203.77-200.92,302.79-91.33h0c81.93,90.67,229.21,71.53,285.25-37.06l172.49-334.23c65.62-127.15,247.83-126.03,311.88,1.92l146.95,293.54c54.39,108.64,200.24,130.12,283.64,41.77l115.13-121.96c71.29-75.53,192.3-72.67,259.95,6.14l210.85,245.64c58.32,67.94,158.52,80.88,232.18,29.98l53.68-37.09c116.31-80.36,274.97,3.29,274.37,144.66l-.64,152.75c-.4,96.33-78.61,174.2-174.93,174.2H-193.87c-106.95,0-188.86-95.12-173-200.88Z" fill="#2e69ff"/><circle cx="1426.95" cy="527.7" r="167.69" fill="#2e69ff"/></g><g clip-path="url(#clippath-1)"><path d="m1653.13,1779.64l40.21-268.04c21.91-146.06,203.77-200.92,302.79-91.33h0c81.93,90.67,229.21,71.53,285.25-37.06l172.49-334.23c65.62-127.15,247.83-126.03,311.88,1.92l146.95,293.54c54.39,108.64,200.24,130.12,283.64,41.77l115.13-121.96c71.29-75.53,192.3-72.67,259.95,6.14l210.85,245.64c58.32,67.94,158.52,80.88,232.18,29.98l53.68-37.09c116.31-80.36,274.97,3.29,274.37,144.66l-.64,152.75c-.4,96.33-78.61,174.2-174.93,174.2H1826.13c-106.95,0-188.86-95.12-173-200.88Z" fill="#004eb9"/></g></svg>