<?xml version="1.0" encoding="UTF-8"?><svg id="Layer_1" xmlns="http://www.w3.org/2000/svg" xmlns:xlink="http://www.w3.org/1999/xlink" viewBox="0 0 2000 2000"><defs><clipPath id="clippath"><rect x="-2020" y="0" width="2000" height="2000" rx="318.33" ry="318.33" transform="translate(-2040 2000) rotate(-180)" fill="none"/></clipPath></defs><g clip-path="url(#clippath)"><path d="m611.18,1779.64l-40.21-268.04c-21.91-146.06-203.77-200.92-302.79-91.33h0c-81.93,90.67-229.21,71.53-285.25-37.06l-172.49-334.23c-65.62-127.15-247.83-126.03-311.88,1.92l-146.95,293.54c-54.39,108.64-200.24,130.12-283.64,41.77l-115.13-121.96c-71.29-75.53-192.3-72.67-259.95,6.14l-210.85,245.64c-58.32,67.94-158.52,80.88-232.18,29.98l-53.68-37.09c-116.31-80.36-274.97,3.29-274.37,144.66l.64,152.75c.4,96.33,78.61,174.2,174.93,174.2H438.18c106.95,0,188.86-95.12,173-200.88Z" fill="#006eb9"/></g><path d="m621.95,1264.64c-31.32,31.32-82.1,31.32-113.42,0l-264.64-264.64c-104.59-104.59-156.89-230.61-156.89-378.05s52.3-273.46,156.89-378.05c104.59-104.59,230.61-156.89,378.05-156.89s273.46,52.3,378.05,156.89l264.64,264.64c31.32,31.32,31.32,82.1,0,113.42h0c-31.32,31.32-82.1,31.32-113.42,0l-264.64-264.64c-73.51-73.51-161.68-110.31-264.51-110.4-102.83-.09-190.93,36.56-264.32,109.95-73.39,73.39-110.18,161.64-110.4,264.77-.21,103.13,36.44,191.44,109.95,264.95l264.64,264.64c31.32,31.32,31.32,82.1,0,113.42h0Zm85.06-557.63h0c31.32-31.32,82.1-31.32,113.42,0l472.57,472.57c31.32,31.32,31.32,82.1,0,113.42h0c-31.32,31.32-82.1,31.32-113.42,0l-472.57-472.57c-31.32-31.32-31.32-82.1,0-113.42Zm28.35,671.05h0c31.32-31.32,82.1-31.32,113.42,0l264.64,264.64c73.51,73.51,161.68,110.31,264.51,110.4,102.83.09,190.93-36.56,264.32-109.95,73.39-73.39,110.19-161.64,110.4-264.77.21-103.13-36.44-191.44-109.95-264.95l-264.64-264.64c-31.32-31.32-31.32-82.1,0-113.42h0c31.32-31.32,82.1-31.32,113.42,0l264.64,264.64c104.59,104.59,156.89,230.61,156.89,378.05s-52.3,273.46-156.89,378.05c-104.59,104.59-230.61,156.89-378.05,156.89s-273.46-52.3-378.05-156.89l-264.64-264.64c-31.32-31.32-31.32-82.1,0-113.42Z" fill="#1d50ef"/><polyline points="1456.51 87 1913 87 1913 543.49" fill="none" stroke="#1d50ef" stroke-linecap="round" stroke-linejoin="round" stroke-width="87"/><line x1="1913" y1="87" x2="1500.98" y2="499.02" fill="none" stroke="#1d50ef" stroke-linecap="round" stroke-linejoin="round" stroke-width="87"/></svg>